<svg width="24" height="28" viewBox="0 0 24 28" fill="none" xmlns="http://www.w3.org/2000/svg">
<path fill-rule="evenodd" clip-rule="evenodd" d="M0.419013 2.80413C0 3.73514 0 4.92912 0 7.31707C0 9.70503 0 10.899 0.419013 11.83C0.895961 12.8897 1.7444 13.7382 2.80413 14.2151C3.73514 14.6341 4.92912 14.6341 7.31707 14.6341H14.6341C17.0221 14.6341 18.2161 14.6341 19.1471 14.2151C20.2068 13.7382 21.0553 12.8897 21.5322 11.83C21.6483 11.572 21.7323 11.2938 21.7929 10.9756H19.3902V10.9709C19.3297 10.974 19.2687 10.9756 19.2073 10.9756C17.2878 10.9756 15.7317 9.41953 15.7317 7.5C15.7317 5.58047 17.2878 4.02439 19.2073 4.02439C19.2687 4.02439 19.3297 4.02598 19.3902 4.02912V4.02439H21.8506C21.7893 3.54636 21.6908 3.15642 21.5322 2.80413C21.0553 1.7444 20.2068 0.895961 19.1471 0.419013C18.2161 0 17.0221 0 14.6341 0H7.31707C4.92912 0 3.73514 0 2.80413 0.419013C1.7444 0.895961 0.895961 1.7444 0.419013 2.80413ZM3.65853 3.65854C3.1534 3.65854 2.7439 4.06803 2.7439 4.57317C2.7439 5.07831 3.1534 5.48781 3.65853 5.48781H13.1707C13.6759 5.48781 14.0854 5.07831 14.0854 4.57317C14.0854 4.06803 13.6759 3.65854 13.1707 3.65854H3.65853Z" fill="black"/>
<rect x="17.561" y="5.48781" width="6.43902" height="4.02439" rx="2.0122" fill="black"/>
<rect x="0.73172" y="16.0976" width="9.5122" height="11.3415" rx="2.92683" fill="black"/>
</svg>
